<?xml version="1.0" encoding="UTF-8" standalone="no" ?>
<!DOCTYPE svg PUBLIC "-//W3C//DTD SVG 1.1//EN" "http://www.w3.org/Graphics/SVG/1.1/DTD/svg11.dtd">
<svg xmlns="http://www.w3.org/2000/svg" xmlns:xlink="http://www.w3.org/1999/xlink" version="1.1" width="500" height="250" viewBox="133.33 66.67 500 250" xml:space="preserve">
<desc>Created with Fabric.js 5.2.4</desc>
<defs>
</defs>
<g transform="matrix(1 0 0 1 250 125)" id="bbc282ad-0e54-4ffe-8e7e-b785646b6ad2"  >
<rect style="stroke: none; stroke-width: 1; stroke-dasharray: none; stroke-linecap: butt; stroke-dashoffset: 0; stroke-linejoin: miter; stroke-miterlimit: 4; fill: rgb(255,255,255); fill-rule: nonzero; opacity: 1; visibility: hidden;" vector-effect="non-scaling-stroke"  x="-250" y="-125" rx="0" ry="0" width="500" height="250" />
</g>
<g transform="matrix(Infinity NaN NaN Infinity 0 0)" id="b00dc56e-d408-4219-a907-90f2e04f8328"  >
</g>
<g transform="matrix(0.23 0 0 0.23 500 250)"  >
<g style="" vector-effect="non-scaling-stroke"   >
		<g transform="matrix(2.42 0 0 2.42 -314.48 0)" id="path7429"  >
<path style="stroke: none; stroke-width: 1; stroke-dasharray: none; stroke-linecap: butt; stroke-dashoffset: 0; stroke-linejoin: miter; stroke-miterlimit: 4; fill: rgb(255,0,0); fill-rule: nonzero; opacity: 1;" vector-effect="non-scaling-stroke"  transform=" translate(-60.7, -42.5)" d="M 118.9 13.3 C 117.5 8.100000000000001 113.4 4 108.2 2.6000000000000014 C 98.7 0 60.7 0 60.7 0 C 60.7 0 22.700000000000003 0 13.200000000000003 2.5 C 8.1 3.9 3.9 8.1 2.5 13.3 C 0 22.8 0 42.5 0 42.5 C 0 42.5 0 62.3 2.5 71.7 C 3.9 76.9 8 81 13.2 82.4 C 22.8 85 60.7 85 60.7 85 C 60.7 85 98.7 85 108.2 82.5 C 113.4 81.1 117.5 77 118.9 71.8 C 121.4 62.3 121.4 42.599999999999994 121.4 42.599999999999994 C 121.4 42.599999999999994 121.5 22.799999999999994 118.9 13.299999999999994 z" stroke-linecap="round" />
</g>
		<g transform="matrix(2.42 0 0 2.42 -305.51 0)" id="polygon7431"  >
<path style="stroke: none; stroke-width: 1; stroke-dasharray: none; stroke-linecap: butt; stroke-dashoffset: 0; stroke-linejoin: miter; stroke-miterlimit: 4; fill: rgb(255,255,255); fill-rule: nonzero; opacity: 1;" vector-effect="non-scaling-stroke"  transform=" translate(-64.4, -42.5)" d="M 48.6 24.3 L 48.6 60.7 L 80.2 42.5 z" stroke-linecap="round" />
</g>
		<g transform="matrix(2.42 0 0 2.42 -10.18 23.74)" id="path7435"  >
<path style="stroke: none; stroke-width: 1; stroke-dasharray: none; stroke-linecap: butt; stroke-dashoffset: 0; stroke-linejoin: miter; stroke-miterlimit: 4; fill: rgb(40,40,40); fill-rule: nonzero; opacity: 1;" vector-effect="non-scaling-stroke"  transform=" translate(-186.3, -52.3)" d="M 176.3 77.4 C 173.9 75.80000000000001 172.20000000000002 73.30000000000001 171.20000000000002 69.80000000000001 C 170.20000000000002 66.4 169.70000000000002 61.80000000000001 169.70000000000002 56.20000000000001 L 169.70000000000002 48.50000000000001 C 169.70000000000002 42.800000000000004 170.3 38.2 171.4 34.7 C 172.6 31.200000000000003 174.4 28.700000000000003 176.8 27.1 C 179.3 25.5 182.5 24.700000000000003 186.5 24.700000000000003 C 190.4 24.700000000000003 193.6 25.500000000000004 196 27.1 C 198.4 28.700000000000003 200.1 31.3 201.2 34.7 C 202.29999999999998 38.1 202.89999999999998 42.7 202.89999999999998 48.5 L 202.89999999999998 56.2 C 202.89999999999998 61.900000000000006 202.39999999999998 66.4 201.29999999999998 69.9 C 200.2 73.30000000000001 198.49999999999997 75.9 196.1 77.5 C 193.7 79.1 190.4 79.9 186.29999999999998 79.9 C 182.1 79.80000000000001 178.7 79 176.29999999999998 77.4 z M 189.8 69 C 190.5 67.3 190.8 64.4 190.8 60.5 L 190.8 43.9 C 190.8 40.1 190.5 37.3 189.8 35.5 C 189.10000000000002 33.7 188 32.9 186.3 32.9 C 184.70000000000002 32.9 183.5 33.8 182.9 35.5 C 182.20000000000002 37.3 181.9 40.1 181.9 43.9 L 181.9 60.5 C 181.9 64.4 182.20000000000002 67.3 182.9 69 C 183.5 70.7 184.70000000000002 71.6 186.4 71.6 C 188 71.6 189.1 70.8 189.8 69 z" stroke-linecap="round" />
</g>
		<g transform="matrix(2.42 0 0 2.42 423.14 23.14)" id="path7437"  >
<path style="stroke: none; stroke-width: 1; stroke-dasharray: none; stroke-linecap: butt; stroke-dashoffset: 0; stroke-linejoin: miter; stroke-miterlimit: 4; fill: rgb(40,40,40); fill-rule: nonzero; opacity: 1;" vector-effect="non-scaling-stroke"  transform=" translate(-365.15, -52.05)" d="M 360.9 56.3 L 360.9 59 C 360.9 62.4 361 65 361.2 66.7 C 361.4 68.4 361.8 69.7 362.5 70.4 C 363.1 71.2 364.1 71.60000000000001 365.5 71.60000000000001 C 367.3 71.60000000000001 368.5 70.9 369.2 69.50000000000001 C 369.9 68.10000000000001 370.2 65.80000000000001 370.3 62.500000000000014 L 380.6 63.100000000000016 C 380.70000000000005 63.600000000000016 380.70000000000005 64.20000000000002 380.70000000000005 65.00000000000001 C 380.70000000000005 69.90000000000002 379.40000000000003 73.60000000000001 376.70000000000005 76.00000000000001 C 374.00000000000006 78.40000000000002 370.20000000000005 79.60000000000001 365.30000000000007 79.60000000000001 C 359.4000000000001 79.60000000000001 355.30000000000007 77.7 352.9000000000001 74.00000000000001 C 350.5000000000001 70.30000000000001 349.30000000000007 64.60000000000001 349.30000000000007 56.80000000000001 L 349.30000000000007 47.500000000000014 C 349.30000000000007 39.500000000000014 350.50000000000006 33.70000000000002 353.00000000000006 30.000000000000014 C 355.50000000000006 26.300000000000015 359.70000000000005 24.500000000000014 365.6000000000001 24.500000000000014 C 369.7000000000001 24.500000000000014 372.9000000000001 25.300000000000015 375.1000000000001 26.800000000000015 C 377.30000000000007 28.300000000000015 378.80000000000007 30.700000000000014 379.7000000000001 33.80000000000001 C 380.6000000000001 37.000000000000014 381.0000000000001 41.40000000000001 381.0000000000001 47.000000000000014 L 381.0000000000001 56.100000000000016 L 360.9000000000001 56.100000000000016 z M 362.4 33.9 C 361.79999999999995 34.699999999999996 361.4 35.9 361.2 37.6 C 361 39.300000000000004 360.9 41.9 360.9 45.4 L 360.9 49.199999999999996 L 369.7 49.199999999999996 L 369.7 45.4 C 369.7 42 369.59999999999997 39.4 369.4 37.6 C 369.2 35.800000000000004 368.7 34.6 368.09999999999997 33.9 C 367.49999999999994 33.199999999999996 366.49999999999994 32.8 365.29999999999995 32.8 C 363.9 32.699999999999996 362.99999999999994 33.099999999999994 362.4 33.9 z" stroke-linecap="round" />
</g>
		<g transform="matrix(2.42 0 0 2.42 -90.49 -0.12)" id="path7439"  >
<path style="stroke: none; stroke-width: 1; stroke-dasharray: none; stroke-linecap: butt; stroke-dashoffset: 0; stroke-linejoin: miter; stroke-miterlimit: 4; fill: rgb(40,40,40); fill-rule: nonzero; opacity: 1;" vector-effect="non-scaling-stroke"  transform=" translate(-153.15, -42.45)" d="M 147.1 55.3 L 133.5 6 L 145.4 6 L 150.20000000000002 28.3 C 151.4 33.8 152.3 38.5 152.9 42.4 L 153.20000000000002 42.4 C 153.60000000000002 39.6 154.50000000000003 35 155.9 28.4 L 160.9 6 L 172.8 6 L 159 55.3 L 159 78.9 L 147.2 78.9 L 147.2 55.3 z" stroke-linecap="round" />
</g>
		<g transform="matrix(2.42 0 0 2.42 84.43 24.95)" id="path7441"  >
<path style="stroke: none; stroke-width: 1; stroke-dasharray: none; stroke-linecap: butt; stroke-dashoffset: 0; stroke-linejoin: miter; stroke-miterlimit: 4; fill: rgb(40,40,40); fill-rule: nonzero; opacity: 1;" vector-effect="non-scaling-stroke"  transform=" translate(-225.35, -52.8)" d="M 241.6 25.7 L 241.6 79 L 232.2 79 L 231.2 72.5 L 230.89999999999998 72.5 C 228.39999999999998 77.4 224.49999999999997 79.9 219.39999999999998 79.9 C 215.89999999999998 79.9 213.29999999999998 78.7 211.59999999999997 76.4 C 209.89999999999998 74.10000000000001 209.09999999999997 70.5 209.09999999999997 65.5 L 209.09999999999997 25.7 L 221.09999999999997 25.7 L 221.09999999999997 64.8 C 221.09999999999997 67.2 221.39999999999998 68.89999999999999 221.89999999999998 69.89999999999999 C 222.39999999999998 70.89999999999999 223.29999999999998 71.39999999999999 224.49999999999997 71.39999999999999 C 225.49999999999997 71.39999999999999 226.49999999999997 71.1 227.49999999999997 70.39999999999999 C 228.49999999999997 69.8 229.19999999999996 68.99999999999999 229.59999999999997 67.99999999999999 L 229.59999999999997 25.7 z" stroke-linecap="round" />
</g>
		<g transform="matrix(2.42 0 0 2.42 233.43 24.95)" id="path7443"  >
<path style="stroke: none; stroke-width: 1; stroke-dasharray: none; stroke-linecap: butt; stroke-dashoffset: 0; stroke-linejoin: miter; stroke-miterlimit: 4; fill: rgb(40,40,40); fill-rule: nonzero; opacity: 1;" vector-effect="non-scaling-stroke"  transform=" translate(-286.85, -52.8)" d="M 303.1 25.7 L 303.1 79 L 293.70000000000005 79 L 292.70000000000005 72.5 L 292.40000000000003 72.5 C 289.90000000000003 77.4 286.00000000000006 79.9 280.90000000000003 79.9 C 277.40000000000003 79.9 274.8 78.7 273.1 76.4 C 271.40000000000003 74.10000000000001 270.6 70.5 270.6 65.5 L 270.6 25.7 L 282.6 25.7 L 282.6 64.8 C 282.6 67.2 282.90000000000003 68.89999999999999 283.40000000000003 69.89999999999999 C 283.90000000000003 70.89999999999999 284.8 71.39999999999999 286.00000000000006 71.39999999999999 C 287.00000000000006 71.39999999999999 288.00000000000006 71.1 289.00000000000006 70.39999999999999 C 290.00000000000006 69.8 290.70000000000005 68.99999999999999 291.1000000000001 67.99999999999999 L 291.1000000000001 25.7 z" stroke-linecap="round" />
</g>
		<g transform="matrix(2.42 0 0 2.42 159.78 -0.12)" id="path7445"  >
<path style="stroke: none; stroke-width: 1; stroke-dasharray: none; stroke-linecap: butt; stroke-dashoffset: 0; stroke-linejoin: miter; stroke-miterlimit: 4; fill: rgb(40,40,40); fill-rule: nonzero; opacity: 1;" vector-effect="non-scaling-stroke"  transform=" translate(-256.45, -42.45)" d="M 274.2 15.7 L 262.3 15.7 L 262.3 78.9 L 250.60000000000002 78.9 L 250.60000000000002 15.7 L 238.70000000000002 15.7 L 238.70000000000002 6 L 274.20000000000005 6 z" stroke-linecap="round" />
</g>
		<g transform="matrix(2.42 0 0 2.42 330.95 -2.3)" id="path7447"  >
<path style="stroke: none; stroke-width: 1; stroke-dasharray: none; stroke-linecap: butt; stroke-dashoffset: 0; stroke-linejoin: miter; stroke-miterlimit: 4; fill: rgb(40,40,40); fill-rule: nonzero; opacity: 1;" vector-effect="non-scaling-stroke"  transform=" translate(-327.1, -41.55)" d="M 342.8 34.2 C 342.1 30.800000000000004 340.90000000000003 28.400000000000002 339.3 26.900000000000002 C 337.7 25.400000000000002 335.40000000000003 24.6 332.6 24.6 C 330.40000000000003 24.6 328.3 25.200000000000003 326.40000000000003 26.5 C 324.50000000000006 27.7 323.00000000000006 29.4 322.00000000000006 31.4 L 321.90000000000003 31.4 L 321.90000000000003 3.3 L 310.3 3.3 L 310.3 78.89999999999999 L 320.2 78.89999999999999 L 321.4 73.89999999999999 L 321.7 73.89999999999999 C 322.59999999999997 75.69999999999999 324 77.1 325.9 78.19999999999999 C 327.79999999999995 79.19999999999999 329.79999999999995 79.79999999999998 332.09999999999997 79.79999999999998 C 336.2 79.79999999999998 339.09999999999997 77.89999999999998 340.99999999999994 74.19999999999999 C 342.8999999999999 70.49999999999999 343.8999999999999 64.6 343.8999999999999 56.69999999999999 L 343.8999999999999 48.29999999999999 C 343.7999999999999 42.19999999999999 343.49999999999994 37.499999999999986 342.7999999999999 34.19999999999999 z M 331.8 55.900000000000006 C 331.8 59.800000000000004 331.6 62.800000000000004 331.3 65 C 331 67.2 330.40000000000003 68.8 329.7 69.7 C 328.9 70.60000000000001 327.9 71.10000000000001 326.7 71.10000000000001 C 325.7 71.10000000000001 324.8 70.9 324 70.4 C 323.2 69.9 322.5 69.2 322 68.30000000000001 L 322 38.1 C 322.4 36.7 323.1 35.5 324.1 34.5 C 325.1 33.6 326.20000000000005 33.1 327.3 33.1 C 328.5 33.1 329.5 33.6 330.1 34.5 C 330.8 35.5 331.20000000000005 37.1 331.5 39.3 C 331.8 41.599999999999994 331.9 44.8 331.9 48.9 L 331.9 55.9 z" stroke-linecap="round" />
</g>
</g>
</g>
</svg>